<svg width="1152" height="262" viewBox="0 0 1152 262" fill="none" xmlns="http://www.w3.org/2000/svg">
<path opacity="0.8" d="M575.988 122.053C669.432 122.053 749.451 179.527 782.626 261.053H369.35C402.525 179.527 482.544 122.053 575.988 122.053Z" fill="#F0A436"/>
<path d="M523.852 214.989C523.82 215.373 523.612 215.821 523.228 216.333C522.844 216.845 522.444 217.245 522.028 217.533C521.612 217.789 521.276 217.949 521.02 218.013C520.444 218.173 520.172 217.997 520.204 217.485C520.332 216.141 520.108 214.829 519.532 213.549C518.988 212.237 518.156 211.149 517.036 210.285C515.916 209.421 514.668 208.861 513.292 208.605C511.948 208.349 510.636 208.397 509.356 208.749C505.356 209.837 502.572 213.757 501.004 220.509C499.82 225.597 500.14 229.837 501.964 233.229C502.988 235.149 504.412 236.653 506.236 237.741C508.06 238.797 509.996 239.293 512.044 239.229C514.124 239.165 515.804 238.685 517.084 237.789C518.364 236.893 519.276 235.709 519.82 234.237C520.012 233.789 520.332 233.325 520.78 232.845C521.26 232.365 521.724 232.029 522.172 231.837C522.652 231.613 522.988 231.597 523.18 231.789C523.404 231.949 523.436 232.253 523.276 232.701C522.732 234.045 521.932 235.389 520.876 236.733C519.852 238.045 518.652 239.181 517.276 240.141C514.844 241.869 512.348 242.765 509.788 242.829C507.26 242.925 505.004 242.397 503.02 241.245C501.068 240.093 499.548 238.509 498.46 236.493C496.476 232.781 496.14 228.157 497.452 222.621C498.924 216.253 501.772 211.389 505.996 208.029C509.356 205.373 512.748 204.349 516.172 204.957C517.74 205.245 519.132 205.869 520.348 206.829C521.564 207.789 522.492 208.989 523.132 210.429C523.772 211.869 524.012 213.389 523.852 214.989ZM531.332 203.709C531.364 203.325 531.572 202.877 531.956 202.365C532.34 201.853 532.74 201.469 533.156 201.213C533.572 200.925 533.908 200.749 534.164 200.685C534.74 200.525 535.012 200.701 534.98 201.213L531.428 239.805C531.396 240.157 531.188 240.589 530.804 241.101C530.42 241.645 530.02 242.045 529.604 242.301C529.188 242.589 528.852 242.765 528.596 242.829C528.02 242.989 527.748 242.813 527.78 242.301L531.332 203.709ZM557.903 237.789C558.319 237.725 558.559 237.853 558.623 238.173C558.687 238.461 558.543 238.861 558.191 239.373C557.871 239.885 557.311 240.461 556.511 241.101C555.711 241.741 554.863 242.237 553.967 242.589C552.207 243.293 551.119 242.973 550.703 241.629C550.511 241.085 550.431 240.077 550.463 238.605C548.799 240.621 547.119 241.933 545.423 242.541C543.727 243.149 542.143 243.245 540.671 242.829C536.095 241.549 534.719 236.269 536.543 226.989C537.151 223.917 538.223 221.389 539.759 219.405C542.383 216.013 545.599 214.573 549.407 215.085C551.007 215.277 552.255 215.869 553.151 216.861C553.887 215.869 554.655 215.277 555.455 215.085C555.711 215.021 555.903 215.053 556.031 215.181C556.191 215.277 556.255 215.453 556.223 215.709C554.367 229.245 553.711 236.861 554.255 238.557C554.511 239.325 554.927 239.565 555.503 239.277C555.759 239.149 556.127 238.893 556.607 238.509C557.087 238.093 557.519 237.853 557.903 237.789ZM550.703 233.805C550.927 231.245 551.087 229.613 551.183 228.909C552.015 222.637 550.463 219.245 546.527 218.733C545.567 218.605 544.735 218.621 544.031 218.781C543.071 218.973 542.415 219.277 542.063 219.693C541.263 220.717 540.607 222.541 540.095 225.165C539.583 227.789 539.359 230.109 539.423 232.125C539.615 236.093 541.023 238.445 543.647 239.181C545.663 239.757 547.215 239.389 548.303 238.077C549.103 237.117 549.903 235.693 550.703 233.805ZM581.261 222.429C581.005 222.909 580.621 223.373 580.109 223.821C579.629 224.237 579.181 224.493 578.765 224.589C578.349 224.685 578.093 224.605 577.997 224.349C577.453 222.877 576.573 221.629 575.357 220.605C574.173 219.549 572.925 218.925 571.613 218.733C570.301 218.541 569.277 218.653 568.541 219.069C567.901 220.413 568.077 221.837 569.069 223.341C569.933 224.653 571.661 225.821 574.253 226.845C576.013 227.549 577.181 228.061 577.757 228.381C580.317 229.949 581.565 231.965 581.501 234.429C581.437 236.381 580.509 238.253 578.717 240.045C575.453 243.277 571.757 243.885 567.629 241.869C565.293 240.717 563.373 238.941 561.869 236.541C561.741 236.317 561.789 235.965 562.013 235.485C562.269 235.005 562.637 234.541 563.117 234.093C563.597 233.645 564.061 233.341 564.509 233.181C564.957 233.021 565.245 233.053 565.373 233.277C567.101 235.997 569.309 237.837 571.997 238.797C573.725 239.405 575.277 239.485 576.653 239.037C577.101 238.877 577.373 238.733 577.469 238.605C577.885 237.901 577.965 236.989 577.709 235.869C577.261 233.821 575.485 232.173 572.381 230.925C572.253 230.861 571.885 230.717 571.277 230.493C569.549 229.821 568.397 229.261 567.821 228.813C564.909 226.701 563.949 224.173 564.941 221.229C565.325 220.045 565.965 218.989 566.861 218.061C569.133 215.693 571.597 214.701 574.253 215.085C575.917 215.309 577.405 215.997 578.717 217.149C580.029 218.269 580.973 219.645 581.549 221.277C581.645 221.533 581.549 221.917 581.261 222.429ZM605.777 222.429C605.521 222.909 605.137 223.373 604.625 223.821C604.145 224.237 603.697 224.493 603.281 224.589C602.865 224.685 602.609 224.605 602.513 224.349C601.969 222.877 601.089 221.629 599.873 220.605C598.689 219.549 597.441 218.925 596.129 218.733C594.817 218.541 593.793 218.653 593.057 219.069C592.417 220.413 592.593 221.837 593.585 223.341C594.449 224.653 596.177 225.821 598.769 226.845C600.529 227.549 601.697 228.061 602.273 228.381C604.833 229.949 606.081 231.965 606.017 234.429C605.953 236.381 605.025 238.253 603.233 240.045C599.969 243.277 596.273 243.885 592.145 241.869C589.809 240.717 587.889 238.941 586.385 236.541C586.257 236.317 586.305 235.965 586.529 235.485C586.785 235.005 587.153 234.541 587.633 234.093C588.113 233.645 588.577 233.341 589.025 233.181C589.473 233.021 589.761 233.053 589.889 233.277C591.617 235.997 593.825 237.837 596.513 238.797C598.241 239.405 599.793 239.485 601.169 239.037C601.617 238.877 601.889 238.733 601.985 238.605C602.401 237.901 602.481 236.989 602.225 235.869C601.777 233.821 600.001 232.173 596.897 230.925C596.769 230.861 596.401 230.717 595.793 230.493C594.065 229.821 592.913 229.261 592.337 228.813C589.425 226.701 588.465 224.173 589.457 221.229C589.841 220.045 590.481 218.989 591.377 218.061C593.649 215.693 596.113 214.701 598.769 215.085C600.433 215.309 601.921 215.997 603.233 217.149C604.545 218.269 605.489 219.645 606.065 221.277C606.161 221.533 606.065 221.917 605.777 222.429ZM614.837 229.821C614.709 235.741 617.285 238.877 622.565 239.229C623.685 239.325 624.693 239.293 625.589 239.133C626.741 238.941 627.381 238.717 627.509 238.461C627.765 237.981 628.133 237.517 628.613 237.069C629.125 236.621 629.589 236.333 630.005 236.205C630.421 236.045 630.709 236.093 630.869 236.349C631.093 236.765 630.789 237.517 629.957 238.605C629.125 239.693 628.261 240.541 627.365 241.149C626.501 241.789 625.653 242.221 624.821 242.445C622.965 242.957 621.285 243.101 619.781 242.877C613.477 242.461 610.645 238.477 611.285 230.925C611.477 228.589 611.829 226.573 612.341 224.877C612.853 223.149 613.669 221.533 614.789 220.029C617.349 216.573 620.533 214.925 624.341 215.085C630.389 215.309 632.917 219.325 631.925 227.133C631.637 228.413 630.997 229.325 630.005 229.869C629.621 230.093 629.205 230.189 628.757 230.157L614.837 229.821ZM615.173 226.221C615.397 226.157 615.573 226.125 615.701 226.125L628.469 226.413C628.373 221.453 626.085 218.893 621.605 218.733C619.429 218.637 617.973 219.101 617.237 220.125C616.277 221.405 615.589 223.437 615.173 226.221ZM655.558 222.429C655.302 222.909 654.918 223.373 654.406 223.821C653.926 224.237 653.478 224.493 653.062 224.589C652.646 224.685 652.39 224.605 652.294 224.349C651.75 222.877 650.87 221.629 649.654 220.605C648.47 219.549 647.222 218.925 645.91 218.733C644.598 218.541 643.574 218.653 642.838 219.069C642.198 220.413 642.374 221.837 643.366 223.341C644.23 224.653 645.958 225.821 648.55 226.845C650.31 227.549 651.478 228.061 652.054 228.381C654.614 229.949 655.862 231.965 655.798 234.429C655.734 236.381 654.806 238.253 653.014 240.045C649.75 243.277 646.054 243.885 641.926 241.869C639.59 240.717 637.67 238.941 636.166 236.541C636.038 236.317 636.086 235.965 636.31 235.485C636.566 235.005 636.934 234.541 637.414 234.093C637.894 233.645 638.358 233.341 638.806 233.181C639.254 233.021 639.542 233.053 639.67 233.277C641.398 235.997 643.606 237.837 646.294 238.797C648.022 239.405 649.574 239.485 650.95 239.037C651.398 238.877 651.67 238.733 651.766 238.605C652.182 237.901 652.262 236.989 652.006 235.869C651.558 233.821 649.782 232.173 646.678 230.925C646.55 230.861 646.182 230.717 645.574 230.493C643.846 229.821 642.694 229.261 642.118 228.813C639.206 226.701 638.246 224.173 639.238 221.229C639.622 220.045 640.262 218.989 641.158 218.061C643.43 215.693 645.894 214.701 648.55 215.085C650.214 215.309 651.702 215.997 653.014 217.149C654.326 218.269 655.27 219.645 655.846 221.277C655.942 221.533 655.846 221.917 655.558 222.429Z" fill="#213315"/>
<path opacity="0.5" d="M1135.65 119.424C1137.93 118.793 1140.25 120.259 1140.66 122.583L1151.77 185.55C1152.18 187.875 1150.49 190.047 1148.14 190.232L816.182 216.303C811.353 216.682 810.132 209.757 814.799 208.461L1135.65 119.424Z" fill="#F0A436"/>
<path opacity="0.5" d="M408.888 114.988C411.63 118.98 406.243 123.501 402.788 120.106L280.526 0H329.886L408.888 114.988Z" fill="#F0A436"/>
<path opacity="0.5" d="M579.982 72.5273C579.517 77.3484 572.483 77.3485 572.018 72.5273L565.023 0H586.977L579.982 72.5273Z" fill="#F0A436"/>
<path opacity="0.5" d="M742.851 116.302C739.396 119.696 734.009 115.176 736.751 111.184L813.139 0H861.24L742.851 116.302Z" fill="#F0A436"/>
<path opacity="0.5" d="M11.338 124.604C11.748 122.279 14.0719 120.812 16.3468 121.444L337.201 210.481C341.869 211.776 340.647 218.703 335.818 218.324L3.86143 192.252C1.50779 192.067 -0.175485 189.895 0.234478 187.57L11.338 124.604Z" fill="#F0A436"/>
</svg>
