<svg width="769" height="524" viewBox="0 0 769 524" fill="none" xmlns="http://www.w3.org/2000/svg">
<g opacity="0.5">
<path d="M388.823 233.839C388.47 238.793 381.196 238.793 380.843 233.839L364.514 4.73898C364.349 2.42373 366.183 0.45459 368.504 0.45459H401.162C403.483 0.45459 405.317 2.42371 405.152 4.73897L388.823 233.839Z" fill="#F0A436"/>
<path d="M442.014 239.608C439.988 244.143 433.153 241.655 434.516 236.879L497.529 16.0107C498.165 13.7786 500.562 12.5554 502.743 13.3493L533.432 24.519C535.613 25.3128 536.663 27.7904 535.716 29.9096L442.014 239.608Z" fill="#F0A436"/>
<path d="M325.114 239.608C327.14 244.143 333.975 241.655 332.612 236.879L269.6 16.0107C268.963 13.7786 266.566 12.5554 264.385 13.3493L233.697 24.519C231.516 25.3128 230.466 27.7904 231.413 29.9096L325.114 239.608Z" fill="#F0A436"/>
<path d="M487.477 264.446C484.022 268.014 478.45 263.339 481.364 259.317L616.118 73.3199C617.48 71.4402 620.15 71.1105 621.928 72.6025L646.946 93.5947C648.724 95.0867 648.863 97.7738 647.248 99.4413L487.477 264.446Z" fill="#F0A436"/>
<path d="M279.532 264.446C282.987 268.014 288.559 263.339 285.645 259.317L150.891 73.3199C149.529 71.4402 146.859 71.1105 145.081 72.6025L120.063 93.5947C118.285 95.0867 118.146 97.7738 119.761 99.4413L279.532 264.446Z" fill="#F0A436"/>
<path d="M249.493 304.106C253.96 306.277 257.596 299.978 253.483 297.195L63.2407 168.504C61.3181 167.203 58.6959 167.807 57.5353 169.817L41.2063 198.1C40.0458 200.11 40.8342 202.683 42.9218 203.697L249.493 304.106Z" fill="#F0A436"/>
<path d="M518.092 304.741C513.625 306.912 509.988 300.613 514.102 297.83L704.343 169.139C706.266 167.839 708.888 168.442 710.049 170.453L726.378 198.735C727.538 200.745 726.75 203.318 724.662 204.333L518.092 304.741Z" fill="#F0A436"/>
<path d="M536.647 343.857C531.707 344.369 530.444 337.206 535.261 335.998L758.044 280.135C760.296 279.57 762.553 281.034 762.957 283.32L768.628 315.482C769.031 317.768 767.41 319.916 765.101 320.155L536.647 343.857Z" fill="#F0A436"/>
<path d="M232.269 343.857C237.209 344.369 238.472 337.206 233.655 335.998L10.8718 280.135C8.62035 279.57 6.36271 281.034 5.95965 283.32L0.288643 315.482C-0.114416 317.768 1.50636 319.916 3.8151 320.155L232.269 343.857Z" fill="#F0A436"/>
</g>
<circle cx="384.5" cy="401.93" r="121.5" fill="#F0A436"/>
</svg>
